#!OML:ASF G:\JayActor3\Patient Classification 1\Patient 1\Session 6\male.ASF
:FULLY-SPECIFIED
:DEGREES
1426
root 6.61814 16.1824 -12.9725 176.211 -20.2289 -174.599
lowerback 6.67078 0.489525 8.91791
upperback 5.14547 0.69389 0.423496
thorax 1.76397 0.424778 -4.60011
lowerneck -3.85829 -1.39063 -0.136724
upperneck 5.99642 -2.40529 6.02048
head 2.67586 -1.07903 1.88384
rclavicle -7.05499e-014 1.09829e-014
rhumerus -30.9489 9.72879 -89.2639
rradius 49.0209
rwrist -0.318081
rhand -14.6926 -13.1092
rfingers 7.12502
rthumb 11.4612 -42.7759
lclavicle -7.05499e-014 1.09829e-014
lhumerus -36.6544 6.11128 78.7143
lradius 27.6813
lwrist 22.5119
lhand -19.5162 9.62072
lfingers 7.12502
lthumb 6.80685 39.4913
rfemur 24.3711 -0.29083 34.1337
rtibia 7.63333e-014
rfoot -13.2591 -5.63506
rtoes -3.96685
lfemur -31.2447 18.8963 -23.9733
ltibia 25.2696
lfoot 3.18944 2.20197
ltoes -20.1535
1427
root 6.56496 16.1704 -13.0952 176.219 -20.0173 -174.512
lowerback 6.53996 0.521579 9.02185
upperback 5.12249 0.731897 0.436606
thorax 1.82092 0.449475 -4.64495
lowerneck -3.84057 -1.3815 -0.146646
upperneck 6.00714 -2.39129 6.0022
head 2.67542 -1.07286 1.88016
rclavicle -7.95449e-014 -2.73329e-015
rhumerus -31.0468 9.97032 -89.3901
rradius 49.5565
rwrist -0.289229
rhand -14.6269 -13.0969
rfingers 7.12502
rthumb 11.5246 -42.7601
lclavicle -7.95449e-014 -2.73329e-015
lhumerus -36.749 6.2451 78.7083
lradius 27.5824
lwrist 22.4715
lhand -19.5274 9.6138
lfingers 7.12502
lthumb 6.79603 39.4847
rfemur 24.8389 -0.355073 34.0752
rtibia 5.40694e-014
rfoot -12.8616 -5.27
rtoes -4.59406
lfemur -31.1152 19.1657 -24.1855
ltibia 25.3045
lfoot 3.17853 2.45335
ltoes -19.5075
1428
root 6.51161 16.1588 -13.2202 176.233 -19.8235 -174.431
lowerback 6.38724 0.550566 9.1042
upperback 5.09591 0.763571 0.446608
thorax 1.88479 0.471161 -4.68029
lowerneck -3.82344 -1.37302 -0.147576
upperneck 6.02837 -2.38036 5.98904
head 2.67868 -1.06792 1.87655
rclavicle 3.76697e-014 -1.07344e-014
rhumerus -31.1466 10.211 -89.5187
rradius 50.0676
rwrist -0.23106
rhand -14.5555 -13.0805
rfingers 7.12502
rthumb 11.5934 -42.7398
lclavicle 3.76697e-014 -1.07344e-014
lhumerus -36.8487 6.3734 78.7037
lradius 27.4933
lwrist 22.4398
lhand -19.5267 9.59951
lfingers 7.12502
lthumb 6.79669 39.4704
rfemur 25.3048 -0.431971 34.0031
rtibia 2.22639e-014
rfoot -12.4126 -4.9008
rtoes -5.12555
lfemur -30.9 19.287 -24.3156
ltibia 25.4124
lfoot 3.00413 2.81644
ltoes -18.393
1429
root 6.45814 16.1479 -13.3474 176.259 -19.6469 -174.375
lowerback 6.21355 0.578362 9.14627
upperback 5.06787 0.790761 0.449388
thorax 1.95696 0.490462 -4.70003
lowerneck -3.80579 -1.3666 -0.142337
upperneck 6.05786 -2.37427 5.98372
head 2.68487 -1.06511 1.87431
rclavicle 6.45429e-015 1.79155e-014
rhumerus -31.2494 10.4516 -89.6529
rradius 50.5608
rwrist -0.183567
rhand -14.5101 -13.0401
rfingers 7.12502
rthumb 11.6372 -42.6969
lclavicle 6.45429e-015 1.79155e-014
lhumerus -36.9515 6.48721 78.7051
lradius 27.4152
lwrist 22.4194
lhand -19.5138 9.59308
lfingers 7.12502
lthumb 6.80919 39.4636
rfemur 25.7719 -0.519569 33.8989
rtibia 2.54444e-014
rfoot -11.9046 -4.52992
rtoes -5.52991
lfemur -30.6035 19.2446 -24.3732
ltibia 25.5876
lfoot 2.65827 3.24717
ltoes -16.9979
1430
root 6.40518 16.1382 -13.4768 176.286 -19.466 -174.329
lowerback 6.03365 0.611911 9.15517
upperback 5.0376 0.824266 0.44937
thorax 2.03021 0.51231 -4.70416
lowerneck -3.78877 -1.36182 -0.125628
upperneck 6.09461 -2.37223 5.98075
head 2.69362 -1.06406 1.8707
rclavicle -3.16751e-014 6.01324e-015
rhumerus -31.3572 10.6951 -89.7993
rradius 51.0397
rwrist -0.189613
rhand -14.519 -12.9974
rfingers 7.12502
rthumb 11.6287 -42.6547
lclavicle -3.16751e-014 6.01324e-015
lhumerus -37.0585 6.58606 78.7116
lradius 27.3503
lwrist 22.4061
lhand -19.4913 9.57717
lfingers 7.12502
lthumb 6.83093 39.447
rfemur 26.2435 -0.600397 33.7806
rtibia 4.45278e-014
rfoot -11.3239 -4.17669
rtoes -5.86328
lfemur -30.2392 19.0655 -24.3429
ltibia 25.819
lfoot 2.15106 3.70447
ltoes -15.4685
1431
root 6.35294 16.1298 -13.6081 176.305 -19.2801 -174.293
lowerback 5.85956 0.650296 9.13235
upperback 5.00839 0.863689 0.445488
thorax 2.10128 0.536271 -4.69468
lowerneck -3.77432 -1.35903 -0.0986229
upperneck 6.13764 -2.3746 5.98048
head 2.705 -1.06491 1.86603
rclavicle 5.16343e-014 -1.14301e-015
rhumerus -31.4681 10.9363 -89.9612
rradius 51.5048
rwrist -0.269023
rhand -14.5933 -12.9606
rfingers 7.12502
rthumb 11.557 -42.622
lclavicle 5.16343e-014 -1.14301e-015
lhumerus -37.1668 6.66311 78.7217
lradius 27.3014
lwrist 22.4063
lhand -19.4539 9.57437
lfingers 7.12502
lthumb 6.86703 39.443
rfemur 25.3694 -0.681941 33.6326
rtibia 2.52568
rfoot -11.7707 -3.47055
rtoes -6.088
lfemur -29.8207 18.7892 -24.2381
ltibia 26.0932
lfoot 1.50803 4.14352
ltoes -13.9697
1432
root 6.30155 16.1226 -13.7412 176.309 -19.0876 -174.275
lowerback 5.70193 0.694687 9.07354
upperback 4.98426 0.911038 0.435917
thorax 2.16864 0.563088 -4.67125
lowerneck -3.7581 -1.3601 -0.0678087
upperneck 6.17895 -2.38311 5.98744
head 2.71578 -1.06871 1.86284
rclavicle 4.95719e-015 -2.5842e-014
rhumerus -31.5773 11.1629 -90.1318
rradius 51.958
rwrist -0.401084
rhand -14.6962 -12.9408
rfingers 7.12502
rthumb 11.4577 -42.6077
lclavicle 4.95719e-015 -2.5842e-014
lhumerus -37.2676 6.72084 78.7347
lradius 27.2627
lwrist 22.4209
lhand -19.4083 9.57017
lfingers 7.12502
lthumb 6.91106 39.4374
rfemur 24.4827 -0.7628 33.4682
rtibia 5.10911
rfoot -12.1338 -2.74915
rtoes -6.24839
lfemur -29.3611 18.463 -24.0845
ltibia 26.3947
lfoot 0.755354 4.53904
ltoes -12.6791
1433
root 6.25114 16.1164 -13.8756 176.29 -18.8936 -174.27
lowerback 5.57133 0.740916 8.98059
upperback 4.96802 0.961289 0.424402
thorax 2.22853 0.58987 -4.63095
lowerneck -3.74289 -1.362 -0.0337023
upperneck 6.21803 -2.39297 5.99521
head 2.72602 -1.07312 1.85926
rclavicle 1.37286e-014 2.48481e-015
rhumerus -31.6816 11.3704 -90.2988
rradius 52.3954
rwrist -0.521312
rhand -14.7718 -12.921
rfingers 7.12502
rthumb 11.3848 -42.592
lclavicle 1.37286e-014 2.48481e-015
lhumerus -37.3582 6.76735 78.7513
lradius 27.2328
lwrist 22.4455
lhand -19.3542 9.57032
lfingers 7.12502
lthumb 6.96324 39.4358
rfemur 23.8703 -0.848955 33.2961
rtibia 7.2232
rfoot -12.1696 -2.1097
rtoes -6.36017
lfemur -28.8647 18.1191 -23.8899
ltibia 26.7081
lfoot -0.0704272 4.88574
ltoes -11.4976
1434
root 6.20165 16.1113 -14.0108 176.25 -18.719 -174.295
lowerback 5.46727 0.783799 8.84306
upperback 4.96117 1.00746 0.404218
thorax 2.28147 0.613109 -4.57479
lowerneck -3.72513 -1.36653 -0.000686129
upperneck 6.25019 -2.40639 6.00933
head 2.73375 -1.07934 1.8578
rclavicle -3.61043e-014 1.32192e-014
rhumerus -31.7765 11.5456 -90.4594
rradius 52.8134
rwrist -0.60824
rhand -14.7971 -12.9165
rfingers 7.12502
rthumb 11.3604 -42.5887
lclavicle -3.61043e-014 1.32192e-014
lhumerus -37.431 6.79961 78.7707
lradius 27.2068
lwrist 22.4819
lhand -19.2959 9.57947
lfingers 7.12502
lthumb 7.01954 39.4431
rfemur 23.293 -0.959323 33.0925
rtibia 9.30879
rfoot -12.059 -1.49491
rtoes -6.40313
lfemur -28.3304 17.7531 -23.6794
ltibia 27.0208
lfoot -0.957043 5.18178
ltoes -10.2993
1435
root 6.15303 16.1066 -14.1464 176.191 -18.5769 -174.348
lowerback 5.38915 0.81929 8.66561
upperback 4.96354 1.0443 0.376057
thorax 2.32691 0.630233 -4.50456
lowerneck -3.70416 -1.37405 0.0296051
upperneck 6.27428 -2.42351 6.02892
head 2.73846 -1.08751 1.85845
rclavicle 2.68359e-015 -4.47266e-015
rhumerus -31.8609 11.6893 -90.6136
rradius 53.2067
rwrist -0.662034
rhand -14.7939 -12.8926
rfingers 7.12502
rthumb 11.3635 -42.5647
lclavicle 2.68359e-015 -4.47266e-015
lhumerus -37.4815 6.81752 78.795
lradius 27.1817
lwrist 22.5229
lhand -19.2374 9.59918
lfingers 7.12502
lthumb 7.07596 39.4609
rfemur 22.6804 -1.1061 32.8551
rtibia 11.4802
rfoot -11.8289 -0.906344
rtoes -6.32261
lfemur -27.7566 17.3647 -23.4577
ltibia 27.3301
lfoot -1.91514 5.43569
ltoes -9.08638
1436
root 6.10539 16.1022 -14.2818 176.119 -18.4698 -174.414
lowerback 5.32655 0.847183 8.46969
upperback 4.97356 1.07137 0.340658
thorax 2.36979 0.641839 -4.43138
lowerneck -3.68209 -1.38365 0.0639355
upperneck 6.29097 -2.44322 6.04938
head 2.74051 -1.097 1.85851
rclavicle 5.8393e-015 -8.54774e-015
rhumerus -31.9282 11.7992 -90.768
rradius 53.5678
rwrist -0.694403
rhand -14.7851 -12.8694
rfingers 7.12502
rthumb 11.372 -42.5411
lclavicle 5.8393e-015 -8.54774e-015
lhumerus -37.5033 6.81272 78.8229
lradius 27.1556
lwrist 22.5685
lhand -19.1877 9.61615
lfingers 7.12502
lthumb 7.12402 39.4762
rfemur 21.99 -1.23121 32.6186
rtibia 13.7833
rfoot -11.4947 -0.41236
rtoes -6.04226
lfemur -27.154 16.9759 -23.2211
ltibia 27.6389
lfoot -2.96032 5.63563
ltoes -7.92774
1437
root 6.05863 16.0979 -14.4166 176.037 -18.3978 -174.472
lowerback 5.27136 0.868151 8.28027
upperback 4.98446 1.09028 0.302598
thorax 2.40854 0.649298 -4.36446
lowerneck -3.65204 -1.39732 0.0992241
upperneck 6.30202 -2.46807 6.07102
head 2.73936 -1.10924 1.85857
rclavicle -2.82523e-014 -1.39149e-015
rhumerus -31.9914 11.8795 -90.9258
rradius 53.9111
rwrist -0.728048
rhand -14.8542 -12.9154
rfingers 7.12502
rthumb 11.3054 -42.5907
lclavicle -2.82523e-014 -1.39149e-015
lhumerus -37.5015 6.77546 78.8574
lradius 27.1319
lwrist 22.6206
lhand -19.1412 9.64296
lfingers 7.12502
lthumb 7.16881 39.5015
rfemur 21.1957 -1.46382 32.3415
rtibia 16.2309
rfoot -10.9715 0.0910833
rtoes -5.52848
lfemur -26.5476 16.643 -22.9759
ltibia 27.956
lfoot -4.08227 5.72634
ltoes -6.9466
1438
root 6.01279 16.0942 -14.5507 175.954 -18.3395 -174.507
lowerback 5.2169 0.889527 8.11509
upperback 4.99082 1.11126 0.264897
thorax 2.44322 0.658225 -4.31079
lowerneck -3.61562 -1.41283 0.143958
upperneck 6.31179 -2.4953 6.0858
head 2.73634 -1.12279 1.85459
rclavicle -3.56073e-014 -5.96354e-015
rhumerus -32.0548 11.9413 -91.0919
rradius 54.2419
rwrist -0.792631
rhand -15.0886 -13.075
rfingers 7.12502
rthumb 11.0793 -42.7626
lclavicle -3.56073e-014 -5.96354e-015
lhumerus -37.4742 6.70422 78.8972
lradius 27.1071
lwrist 22.6699
lhand -19.0961 9.66051
lfingers 7.12502
lthumb 7.21235 39.5176
rfemur 20.2794 -1.78485 32.0373
rtibia 18.8186
rfoot -10.2149 0.563661
rtoes -4.80725
lfemur -25.9641 16.4223 -22.7258
ltibia 28.2861
lfoot -5.23795 5.6763
ltoes -6.17852
1439
root 5.96801 16.0919 -14.6839 175.878 -18.2912 -174.521
lowerback 5.16239 0.91108 7.97253
upperback 4.98762 1.13449 0.228883
thorax 2.46889 0.66854 -4.2681
lowerneck -3.56821 -1.43021 0.191147
upperneck 6.32294 -2.52432 6.09218
head 2.73154 -1.13756 1.84737
rclavicle -2.05494e-014 -6.36111e-015
rhumerus -32.1231 11.9964 -91.2654
rradius 54.5635
rwrist -0.900269
rhand -15.4782 -13.339
rfingers 7.12502
rthumb 10.7035 -43.0463
lclavicle -2.05494e-014 -6.36111e-015
lhumerus -37.4281 6.60025 78.9429
lradius 27.0889
lwrist 22.7234
lhand -19.0379 9.69023
lfingers 7.12502
lthumb 7.26856 39.5454
rfemur 19.2331 -2.17343 31.708
rtibia 21.5382
rfoot -9.20205 0.953886
rtoes -3.88775
lfemur -25.4188 16.338 -22.4865
ltibia 28.6213
lfoot -6.35109 5.49913
ltoes -5.57215
1440
root 5.92422 16.0918 -14.8159 175.809 -18.2441 -174.535
lowerback 5.12331 0.93505 7.8347
upperback 4.97198 1.1642 0.189535
thorax 2.47388 0.681507 -4.23203
lowerneck -3.50753 -1.44839 0.242781
upperneck 6.33969 -2.55407 6.08841
head 2.72584 -1.15302 1.83605
rclavicle -2.29596e-014 9.14409e-015
rhumerus -32.2031 12.0494 -91.4443
rradius 54.8812
rwrist -1.04162
rhand -15.907 -13.6
rfingers 7.12502
rthumb 10.2898 -43.3283
lclavicle -2.29596e-014 9.14409e-015
lhumerus -37.3703 6.46208 78.9938
lradius 27.0818
lwrist 22.7843
lhand -18.9742 9.71919
lfingers 7.12502
lthumb 7.3301 39.5722
rfemur 18.0666 -2.60156 31.3403
rtibia 24.3756
rfoot -7.9268 1.20655
rtoes -2.82796
lfemur -24.9011 16.3905 -22.2802
ltibia 28.9406
lfoot -7.3518 5.24425
ltoes -5.12809
